<svg width="760" height="270" xmlns="http://www.w3.org/2000/svg" xmlns:xlink="http://www.w3.org/1999/xlink" overflow="hidden"><g clip-path="url(#clip0)"><path d="M65.9121 45.3004C61.7735 45.3004 58.3246 46.9187 55.5655 50.1554 52.8063 53.3921 51.4268 58.645 51.4268 65.9142 51.4268 72.5997 52.8329 77.5608 55.645 80.7975 58.4572 84.0341 62.0122 85.6525 66.3101 85.6525 70.0773 85.6525 73.2344 84.1005 75.7813 80.9965 78.3281 77.8924 79.6016 72.6263 79.6016 65.1979 79.6016 58.3531 78.2751 53.3257 75.6221 50.1156 72.9691 46.9055 69.7324 45.3004 65.9121 45.3004ZM246.604 43.7882C241.882 43.7882 237.982 45.6055 234.904 49.2401 231.827 52.8747 230.288 58.4062 230.288 65.8346 230.288 73.3691 231.814 78.9404 234.865 82.5485 237.915 86.1565 241.749 87.9606 246.365 87.9606 251.035 87.9606 254.868 86.1831 257.866 82.628 260.864 79.073 262.363 73.3691 262.363 65.5162 262.363 58.194 260.851 52.7421 257.826 49.1605 254.802 45.579 251.061 43.7882 246.604 43.7882ZM246.126 21.503C263.053 21.503 275.84 26.4111 284.489 36.2272 291.44 44.1331 294.915 53.8696 294.915 65.4366 294.915 78.4363 290.604 89.0881 281.982 97.392 273.359 105.696 261.434 109.848 246.206 109.848 232.623 109.848 221.639 106.399 213.256 99.5011 202.962 90.9585 197.815 79.7628 197.815 65.9142 197.815 53.0206 202.166 42.3954 210.868 34.0384 219.57 25.6815 231.323 21.503 246.126 21.503ZM178.971 21.503C183.747 21.503 188.973 22.9887 194.65 25.9601L184.622 49.0411C180.802 47.4493 177.777 46.6534 175.549 46.6534 171.304 46.6534 168.014 48.4044 165.68 51.9064 162.337 56.8409 160.666 66.0734 160.666 79.6036L160.666 107.938 128.113 107.938 128.113 23.4132 158.437 23.4132 158.437 37.2618C161.355 31.2661 164.366 27.1407 167.47 24.8856 170.574 22.6306 174.408 21.503 178.971 21.503ZM76.4976 21.503C87.7993 21.503 96.541 25.8274 102.722 34.4762 108.904 43.125 111.995 53.8165 111.995 66.5509 111.995 80.6118 108.625 91.3431 101.887 98.745 95.1481 106.147 86.632 109.848 76.3384 109.848 71.3508 109.848 66.8009 108.999 62.6887 107.301 58.5766 105.603 54.9022 103.083 51.6656 99.7399L51.6656 140.092 18.9541 140.092 18.9541 23.4132 49.2779 23.4132 49.2779 35.9088C53.4696 30.6559 57.3164 27.1009 60.8184 25.2438 65.5407 22.7499 70.7671 21.503 76.4976 21.503Z" fill="#015B84" fill-rule="evenodd"/><path d="M65.9109 45.8037 63.1151 46.116 60.4698 47.0178 58.1238 48.4615 55.9553 50.5095 54.2077 53.2214 52.9897 56.6924 52.1842 60.9677 51.9423 65.9623 52.1902 70.5623 52.9872 74.5469 54.2632 77.8281 56.0755 80.4863 58.2501 82.54 60.6531 84.0419 63.356 84.8828 66.315 85.1847 68.9557 84.8847 71.3478 84.0474 73.4996 82.6727 75.4224 80.6898 77.05 78.0976 78.2054 74.6315 78.8864 70.2975 79.131 65.2258 78.8811 60.4636 78.1461 56.4439 76.9292 53.0974 75.236 50.4367 73.2484 48.3889 71.0352 46.9533 68.5819 46.1156ZM65.8566 44.8035C65.8944 44.7993 65.9324 44.7994 65.9701 44.8038L68.7509 45.1285C68.7862 45.1326 68.8209 45.1405 68.8545 45.1519L71.417 46.0269C71.4559 46.0402 71.493 46.0583 71.5275 46.0806L73.84 47.5806C73.8715 47.6011 73.9006 47.625 73.9267 47.6519L75.9892 49.7769C76.0129 49.8013 76.034 49.828 76.0522 49.8567L77.8022 52.6067C77.8217 52.6374 77.8379 52.6701 77.8503 52.7042L79.1003 56.1417C79.1099 56.1682 79.1173 56.1955 79.1223 56.2232L79.8797 60.4117 80.1298 65.2745 79.8743 70.4527 79.1868 74.8277C79.1825 74.8551 79.176 74.882 79.1672 74.9082L77.9797 78.4707C77.9671 78.5086 77.95 78.5447 77.9288 78.5785L76.2413 81.266C76.2228 81.2956 76.2012 81.3231 76.1768 81.3482L74.1768 83.4107C74.1498 83.4385 74.1198 83.4631 74.0871 83.484L71.8371 84.9215C71.8045 84.9423 71.7696 84.9593 71.7331 84.972L69.2331 85.847C69.1979 85.8594 69.1614 85.8677 69.1244 85.8719L66.3744 86.1844C66.3387 86.1885 66.3028 86.1887 66.2671 86.185L63.2046 85.8725C63.1715 85.8691 63.1387 85.8625 63.1069 85.8525L60.2944 84.9775C60.2534 84.9648 60.2143 84.9468 60.1779 84.9241L57.6779 83.3616C57.6499 83.3441 57.6236 83.3238 57.5996 83.3011L55.3496 81.1761C55.3234 81.1514 55.3 81.124 55.2798 81.0943L53.4048 78.3443C53.3834 78.3129 53.3657 78.2792 53.3519 78.2438L52.0394 74.8688C52.0289 74.8419 52.0208 74.814 52.0151 74.7857L51.2026 70.7232C51.1979 70.6996 51.1949 70.6757 51.1936 70.6517L50.9435 65.913 51.2015 60.7825 52.014 56.47C52.0187 56.4453 52.0252 56.4209 52.0336 56.3971L53.2836 52.8346C53.2966 52.7976 53.3139 52.7622 53.3351 52.7293L55.1476 49.9168C55.1694 49.8829 55.1953 49.8518 55.2246 49.8241L57.4746 47.6991C57.4995 47.6756 57.5267 47.6547 57.5558 47.6368L59.9933 46.1368C60.025 46.1173 60.0588 46.1014 60.0941 46.0894L62.8441 45.1519C62.8784 45.1402 62.9138 45.1322 62.9499 45.1282ZM246.603 44.2908 243.362 44.6169 240.344 45.643 237.689 47.2721 235.331 49.5697 233.391 52.5402 231.988 56.262 231.121 60.7206 230.817 65.9048 231.13 71.0954 231.927 75.5543 233.329 79.2725 235.269 82.243 237.627 84.5406 240.284 86.1714 243.176 87.1956 246.381 87.4979 249.652 87.1951 252.543 86.2314 255.196 84.6031 257.492 82.3679 259.429 79.4017 260.771 75.6198 261.639 70.9709 261.881 65.5399 261.633 60.4986 260.772 56.1354 259.431 52.4758 257.494 49.51 255.135 47.2721 252.535 45.6396 249.705 44.616ZM246.554 43.2907C246.588 43.2873 246.622 43.2874 246.656 43.2909L249.87 43.6278C249.91 43.6321 249.95 43.6412 249.988 43.6549L252.925 44.7174C252.959 44.7296 252.991 44.7452 253.021 44.7642L255.709 46.4517C255.737 46.4693 255.763 46.4896 255.787 46.5124L258.225 48.8249C258.253 48.8517 258.278 48.8816 258.299 48.9142L260.299 51.9767C260.32 52.0084 260.337 52.0424 260.35 52.078L261.725 55.828C261.734 55.8525 261.741 55.8778 261.746 55.9034L262.621 60.3409C262.626 60.3648 262.629 60.3889 262.63 60.4133L262.88 65.5853 262.622 71.1544 261.747 75.8419C261.742 75.8675 261.735 75.8927 261.727 75.9173L260.352 79.7923C260.338 79.8297 260.321 79.8653 260.299 79.8985L258.299 82.961C258.279 82.9918 258.256 83.0202 258.229 83.0459L255.854 85.3584C255.828 85.3841 255.798 85.4069 255.767 85.4263L253.017 87.1138C252.984 87.1337 252.95 87.1499 252.913 87.162L249.913 88.162C249.877 88.1741 249.84 88.182 249.801 88.1855L246.426 88.498C246.396 88.5009 246.364 88.5008 246.333 88.4979L243.021 88.1854C242.98 88.1815 242.94 88.1727 242.901 88.1589L239.901 87.0964C239.868 87.0847 239.836 87.0696 239.806 87.0513L237.056 85.3638C237.025 85.3444 236.995 85.3216 236.969 85.2957L234.531 82.9207C234.505 82.8951 234.482 82.8667 234.462 82.836L232.462 79.7735C232.442 79.7431 232.425 79.7105 232.413 79.6765L230.975 75.864C230.964 75.8353 230.956 75.8055 230.951 75.7753L230.131 71.1548 229.819 65.8454 230.14 60.5297 231.015 56.0297C231.02 56.0021 231.028 55.975 231.038 55.9487L232.475 52.1362C232.488 52.1022 232.504 52.0697 232.524 52.0392L234.524 48.9767C234.544 48.946 234.568 48.9176 234.594 48.892L237.031 46.517C237.058 46.4911 237.087 46.4683 237.119 46.449L239.869 44.7615C239.901 44.742 239.934 44.7262 239.969 44.7142L243.094 43.6517C243.13 43.6395 243.168 43.6314 243.205 43.6276ZM178.969 22.0046 175.768 22.2459 172.867 22.9062 170.223 23.8901 167.803 25.3421 165.552 27.3496 163.299 30.0239 161.072 33.4219 158.885 37.5469C158.777 37.7498 158.545 37.8533 158.322 37.7978 158.099 37.7424 157.943 37.5423 157.943 37.3126L157.943 23.9376 128.63 23.9376 128.63 107.438 160.193 107.438 160.193 79.6187 160.256 74.722 160.508 70.2667 160.886 66.1747 161.454 62.4591 162.152 59.167 163.043 56.2478 164.072 53.7506 165.26 51.6881C165.274 51.6628 165.291 51.6389 165.31 51.6165L167.247 49.304C167.275 49.2706 167.307 49.2411 167.343 49.216L169.655 47.591C169.689 47.5672 169.726 47.5476 169.765 47.5329L172.39 46.5329C172.43 46.5174 172.473 46.5073 172.516 46.5028L175.516 46.1903C175.559 46.1858 175.603 46.187 175.646 46.1938L179.584 46.8188C179.612 46.8233 179.64 46.8302 179.667 46.8394L184.356 48.4407 194.039 26.2482 190.343 24.5355 186.395 23.1753 182.588 22.3108ZM246.149 22.0025 240.81 22.2471 235.732 22.8022 230.962 23.7913 226.446 25.15 222.24 26.8792 218.291 28.9732 214.643 31.5052 211.244 34.4055 208.215 37.6161 205.62 41.0105 203.393 44.6554 201.539 48.4794 200.117 52.4881 199.126 56.7564 198.505 61.2073 198.317 65.913 198.562 70.9231 199.302 75.6883 200.471 80.2554 202.133 84.5131 204.292 88.5291 206.881 92.2954 209.968 95.8185 213.565 99.1056 220.306 103.62 227.97 106.834 236.639 108.754 246.239 109.375 251.764 109.191 256.906 108.635 261.8 107.646 266.38 106.287 270.649 104.557 274.662 102.461 278.302 99.998 281.642 97.0947 284.671 93.8842 287.263 90.495 289.427 86.8508 291.221 83.0231 292.643 78.9497 293.635 74.6823 294.256 70.1679 294.444 65.4751 293.823 57.208 291.846 49.671 288.635 42.8173 284.123 36.5752 280.759 33.2056 276.999 30.2419 272.864 27.7693 268.288 25.7256 263.34 24.1145 258.009 22.9966 252.293 22.312ZM76.5345 22.0017 72.4026 22.3054 68.4573 22.9803 64.6474 24.0814 61.0578 25.6905 58.4479 27.3863 55.6751 29.6624 52.7623 32.6353 49.6998 36.2603C49.5644 36.4206 49.3432 36.4793 49.1461 36.4072 48.949 36.3351 48.8179 36.1475 48.8179 35.9376L48.8179 23.9376 19.5054 23.9376 19.5054 139.625 51.1929 139.625 51.1929 99.7501C51.1929 99.5549 51.3065 99.3776 51.4837 99.296 51.661 99.2143 51.8696 99.2433 52.0179 99.3702L57.1645 103.773 62.8847 106.848 69.2869 108.756 76.3788 109.373 83.6581 108.695 90.3048 106.664 96.2716 103.219 101.566 98.4166 105.88 92.3165 109.027 85.0342 110.884 76.4312 111.506 66.5934 110.946 57.5041 109.211 49.14 106.365 41.592 102.364 34.8115 99.9685 31.7953 97.3318 29.2136 94.442 27.0576 91.375 25.2739 87.9974 23.8571 84.4258 22.8687 80.6005 22.2492ZM178.934 21.0045C178.96 21.0025 178.987 21.0026 179.013 21.0048L182.673 21.3144 186.616 22.1999 190.668 23.5898 194.903 25.5463C195.15 25.6605 195.26 25.9509 195.151 26.2001L185.089 49.2626C184.985 49.5011 184.715 49.6199 184.469 49.5358L179.385 47.7997 175.554 47.1917 172.685 47.4907 170.179 48.4451 167.972 49.9965 166.104 52.2251 164.939 54.2496 163.968 56.6274 163.109 59.4582 162.432 62.6661 161.875 66.3255 161.503 70.3586 161.255 74.7782 161.193 79.6315 161.193 107.938C161.193 108.214 160.969 108.438 160.693 108.438L128.13 108.438C127.854 108.438 127.63 108.214 127.63 107.938L127.63 23.4376C127.63 23.1615 127.854 22.9376 128.13 22.9376L158.443 22.9376C158.719 22.9376 158.943 23.1615 158.943 23.4376L158.943 35.3025 160.189 32.9534 162.462 29.4763 164.81 26.6783C164.826 26.66 164.842 26.6429 164.86 26.627L167.173 24.5645C167.196 24.5436 167.221 24.525 167.248 24.5089L169.748 23.0089C169.774 22.9931 169.802 22.9797 169.831 22.969L172.519 21.969 175.581 21.2627C175.606 21.2572 175.63 21.2534 175.655 21.2515ZM76.4606 21.0044 80.6602 21.251 84.585 21.8815 88.2634 22.8931 91.7608 24.3513 94.9437 26.1926 97.929 28.4116 100.667 31.0799 103.147 34.1887 107.248 41.1208C107.263 41.1456 107.276 41.1717 107.286 41.1987L110.161 48.8237C110.17 48.8481 110.177 48.8731 110.182 48.8986L111.932 57.3361C111.937 57.3594 111.94 57.3831 111.942 57.4069L112.504 66.5319 111.879 76.5315C111.878 76.5564 111.874 76.5812 111.869 76.6056L109.994 85.2931C109.987 85.325 109.977 85.3561 109.964 85.386L106.777 92.761C106.763 92.7928 106.746 92.823 106.726 92.8513L102.351 99.0388C102.33 99.0686 102.306 99.096 102.279 99.1205L96.9038 103.995C96.8775 104.019 96.8487 104.04 96.8179 104.058L90.7554 107.558C90.7226 107.577 90.6877 107.592 90.6515 107.603L83.9015 109.666C83.869 109.676 83.8356 109.682 83.8018 109.685L76.4268 110.373C76.3969 110.376 76.367 110.376 76.3371 110.373L69.1496 109.748C69.1158 109.745 69.0825 109.739 69.0501 109.729L62.5501 107.792C62.5175 107.782 62.486 107.769 62.4561 107.753L56.6436 104.628C56.6121 104.611 56.5826 104.591 56.5554 104.568L52.1929 100.836 52.1929 140.125C52.1929 140.401 51.969 140.625 51.6929 140.625L19.0054 140.625C18.7292 140.625 18.5054 140.401 18.5054 140.125L18.5054 23.4376C18.5054 23.1615 18.7292 22.9376 19.0054 22.9376L49.3179 22.9376C49.594 22.9376 49.8179 23.1615 49.8179 23.4376L49.8179 34.571 51.9985 31.9899 54.9606 28.9628 57.8128 26.6139 60.5451 24.8311C60.5668 24.8169 60.5897 24.8045 60.6134 24.7939L64.2384 23.1689 68.1785 22.0199 72.2332 21.3198ZM246.104 21.0036 252.343 21.3132 258.127 22.0036 263.545 23.1357 268.597 24.7746 273.272 26.856 277.512 29.3833 281.377 32.4197 284.859 35.8966C284.878 35.9154 284.895 35.9356 284.911 35.9572L289.473 42.2697C289.491 42.2951 289.507 42.3221 289.521 42.3505L292.771 49.288C292.784 49.3154 292.794 49.344 292.802 49.3733L294.802 56.9983C294.809 57.0275 294.814 57.0574 294.816 57.0876L295.441 65.4001 295.255 70.2073 294.626 74.818 293.617 79.1756 292.165 83.3522 290.333 87.2745 288.123 91.0052 285.465 94.4911 282.369 97.7805 278.959 100.752 275.223 103.289 271.112 105.443 266.756 107.213 262.085 108.604 257.105 109.615 251.872 110.185 246.272 110.375 236.536 109.749C236.51 109.747 236.485 109.744 236.46 109.738L227.71 107.801C227.681 107.794 227.652 107.785 227.625 107.774L219.875 104.524C219.845 104.511 219.816 104.496 219.79 104.478L212.977 99.9156C212.956 99.9016 212.937 99.8861 212.918 99.8692L209.293 96.5567 206.13 92.9548 203.469 89.0962 201.253 84.9872 199.54 80.6198 198.334 75.937 197.574 71.0771 197.318 65.9623 197.506 61.1679 198.135 56.6188 199.143 52.2622 200.597 48.1458 202.493 44.2198 204.766 40.4897 207.421 37.0092 210.516 33.7197 213.993 30.745 217.72 28.152 221.771 25.9961 226.065 24.2253 230.674 22.8339 235.529 21.8231 240.701 21.2531Z" fill="#015B84" fill-rule="evenodd"/><path d="M62.0489 41.5697C57.9102 41.5697 54.4613 43.1881 51.7022 46.4247 48.9431 49.6614 47.5635 54.9143 47.5635 62.1835 47.5635 68.869 48.9696 73.8301 51.7818 77.0668 54.594 80.3035 58.149 81.9218 62.4468 81.9218 66.2141 81.9218 69.3712 80.3698 71.918 77.2658 74.4649 74.1618 75.7383 68.8956 75.7383 61.4672 75.7383 54.6225 74.4118 49.595 71.7589 46.3849 69.1059 43.1748 65.8692 41.5697 62.0489 41.5697ZM242.741 40.0575C238.018 40.0575 234.119 41.8748 231.041 45.5094 227.964 49.144 226.425 54.6755 226.425 62.1039 226.425 69.6384 227.95 75.2097 231.001 78.8178 234.052 82.4258 237.886 84.2299 242.502 84.2299 247.171 84.2299 251.005 82.4524 254.003 78.8974 257.001 75.3424 258.5 69.6384 258.5 61.7855 258.5 54.4633 256.987 49.0114 253.963 45.4298 250.939 41.8483 247.198 40.0575 242.741 40.0575ZM242.263 17.7724C259.189 17.7724 271.977 22.6804 280.626 32.4965 287.576 40.4024 291.052 50.1389 291.052 61.706 291.052 74.7056 286.741 85.3574 278.118 93.6613 269.496 101.965 257.571 106.117 242.343 106.117 228.759 106.117 217.776 102.668 209.393 95.7704 199.099 87.2278 193.952 76.0321 193.952 62.1835 193.952 49.2899 198.303 38.6647 207.005 30.3078 215.707 21.9508 227.46 17.7724 242.263 17.7724ZM175.108 17.7724C179.883 17.7724 185.11 19.258 190.787 22.2294L180.759 45.3105C176.939 43.7187 173.914 42.9228 171.686 42.9228 167.441 42.9228 164.151 44.6737 161.816 48.1757 158.474 53.1103 156.802 62.3427 156.802 75.8729L156.802 104.207 124.25 104.207 124.25 19.6825 154.574 19.6825 154.574 33.5312C157.492 27.5354 160.503 23.41 163.607 21.1549 166.711 18.8999 170.545 17.7724 175.108 17.7724ZM72.6343 17.7724C83.9361 17.7724 92.6777 22.0967 98.8592 30.7455 105.041 39.3943 108.131 50.0858 108.131 62.8202 108.131 76.8811 104.762 87.6124 98.0235 95.0143 91.2849 102.416 82.7688 106.117 72.4752 106.117 67.4875 106.117 62.9376 105.268 58.8255 103.57 54.7134 101.872 51.039 99.352 47.8023 96.0092L47.8023 136.361 15.0909 136.361 15.0909 19.6825 45.4146 19.6825 45.4146 32.1781C49.6063 26.9252 53.4532 23.3702 56.9551 21.5131 61.6775 19.0193 66.9039 17.7724 72.6343 17.7724Z" stroke="#48ACC3" stroke-linejoin="round" stroke-miterlimit="10" fill="#48ACC3" fill-rule="evenodd"/><text fill="#000000" fill-opacity="0" font-family="Arial,Arial_MSFontService,sans-serif" font-size="118.589" x="15.0909" y="121.538">pro</text><path d="M346.485 78.7863 346.426 78.8573 346.489 78.8573C346.519 78.7825 346.518 78.7588 346.485 78.7863ZM379.566 24.0464C380.387 24.0464 381.258 24.0792 382.18 24.1448 383.101 24.2103 383.901 24.3012 384.577 24.4173 385.345 24.5379 386.447 24.6698 387.882 24.8133L387.882 40.0144C385.77 39.834 384.439 39.6893 383.89 39.5801 383.667 39.5238 383.279 39.4717 382.727 39.4237 382.174 39.3758 381.618 39.3518 381.057 39.3518 380.284 39.3518 379.534 39.4508 378.807 39.6488 378.079 39.8468 377.272 40.2407 376.387 40.8307 375.502 41.4207 374.563 42.2494 373.571 43.3167 372.579 44.3841 371.451 45.8527 370.185 47.7225L355.582 69.2274 383.575 112.815 365.01 112.815 347.738 84.286C347.2 83.4531 346.667 82.5843 346.139 81.6795L345.387 80.3294 345.33 80.4141C344.436 81.7511 343.44 83.3858 342.341 85.3181L334.144 97.9072C333.581 99.3019 332.582 100.961 331.147 102.884 329.712 104.808 328.082 106.547 326.257 108.103 324.433 109.658 322.364 110.901 320.052 111.833 317.74 112.764 315.132 113.23 312.23 113.23 310.012 113.23 308.256 113.137 306.961 112.951 306.519 112.861 305.531 112.653 303.998 112.328L303.998 97.2618C306.083 97.4659 307.401 97.6239 307.954 97.7356 308.15 97.784 308.46 97.8276 308.884 97.8663 309.307 97.905 309.926 97.9244 310.74 97.9244 311.487 97.9244 312.235 97.8337 312.984 97.6525 313.733 97.4712 314.541 97.0913 315.409 96.5127 316.277 95.9342 317.215 95.1035 318.221 94.0208 319.228 92.938 320.381 91.4486 321.682 89.5523L335.968 69.5151 308.305 24.6258 326.845 24.6258 343.987 55.3396C344.24 55.5173 344.654 56.1539 345.229 57.2495L346.041 58.7635 357.677 39.3676C358.513 37.9307 359.609 36.2653 360.966 34.3712 362.323 32.4772 363.904 30.7475 365.711 29.1821 367.517 27.6167 369.559 26.3694 371.837 25.4402 374.115 24.511 376.691 24.0464 379.566 24.0464Z" fill="#015B84" fill-rule="evenodd"/><path d="M351.654 79.1759 352.143 79.9661 352.289 79.9469ZM346.502 72.9209 345.518 74.497 346.201 74.4309 348.449 75.2842ZM379.695 30.0623 376.613 30.363 373.99 31.0745 371.74 32.1994 369.75 33.6703 365.69 38.1046 364.25 40.2329 362.866 42.4575 351.241 61.895C350.125 63.7611 348.087 64.8773 345.913 64.8126 343.74 64.748 341.772 63.5126 340.768 61.5834L340.134 60.3398 339.844 59.751 339.344 59.126C339.136 58.8656 338.95 58.5884 338.787 58.2971L323.378 30.6278 319.073 30.6278 341.078 66.4231C342.34 68.4759 342.252 71.0845 340.853 73.047L326.615 93.0301 324.501 95.9835 322.876 97.921C322.688 98.1453 322.484 98.3553 322.265 98.5498L319.453 101.05C319.012 101.441 318.516 101.766 317.981 102.013L315.544 103.138C314.958 103.408 314.333 103.582 313.692 103.654L311.442 103.904C311.155 103.935 310.867 103.947 310.579 103.937L310.029 103.912 310.029 107.212 311.826 107.27 315.336 107.004 317.923 106.259 320.274 105.105 322.278 103.624 326.489 99.143 327.629 97.512 329.128 94.6642 337.207 82.2733 338.847 79.5616 340.222 77.3116C340.469 76.907 340.764 76.533 341.099 76.1977L341.135 76.1622 341.243 75.8662C342.149 74.2391 343.786 73.0892 345.703 72.8374 348.26 72.5016 350.746 73.8375 351.877 76.1553L351.922 76.2468C352.375 77.1766 352.573 78.1904 352.521 79.1912L352.328 80.2648 352.912 81.2085 368.411 106.815 372.603 106.815 350.544 72.497C349.243 70.473 349.277 67.8676 350.631 65.8782L365.359 44.231 367.359 41.4863 368.921 39.5488C369.145 39.2714 369.393 39.0145 369.662 38.7812L372.475 36.3437C372.869 36.0016 373.307 35.7126 373.776 35.4839L376.214 34.2964C376.782 34.0196 377.39 33.8343 378.016 33.7473L380.266 33.4348C380.613 33.3867 380.964 33.3689 381.314 33.3819L381.904 33.4156 381.904 30.1829 381.892 30.1815ZM379.891 18.0552 382.542 18.1991 385.22 18.4733 386.805 18.6782 388.501 18.8451C391.568 19.1518 393.904 21.7328 393.904 24.8153L393.904 40.0653C393.904 41.7579 393.189 43.3719 391.936 44.5091 390.682 45.6464 389.006 46.2013 387.322 46.0369L384.759 45.7869 383.128 45.5774 381.793 45.3587 381.624 45.3614 380.612 45.502 379.739 45.9272 377.926 47.4987 376.7 49.0193 375.074 51.2746 362.784 69.3462 388.639 109.571C389.826 111.417 389.91 113.764 388.858 115.691 387.806 117.617 385.786 118.815 383.592 118.815L365.029 118.815C362.93 118.815 360.983 117.718 359.896 115.922L345.305 91.815 339.181 101.216 338.304 102.994 336.129 106.295C335.948 106.562 335.747 106.814 335.527 107.049L330.652 112.237C330.405 112.499 330.135 112.739 329.846 112.953L326.971 115.078C326.68 115.293 326.371 115.48 326.047 115.64L322.734 117.265C322.419 117.419 322.09 117.546 321.753 117.643L318.065 118.706C317.671 118.819 317.267 118.892 316.857 118.923L312.732 119.236 309.154 119.189 306.482 118.983C306.183 118.959 305.885 118.912 305.592 118.843L304.53 118.593 302.853 118.261C300.048 117.7 298.029 115.238 298.029 112.378L298.029 97.3153C298.029 95.6227 298.744 94.0087 299.998 92.8715 301.251 91.7342 302.927 91.1793 304.612 91.3437L307.174 91.5937 308.777 91.8078 309.697 91.9304 310.465 91.9383 311.399 91.8345 312.145 91.4901 313.965 89.8729 315.307 88.2721 316.818 86.1005 328.774 69.3211 303.23 27.77C302.092 25.9187 302.044 23.5966 303.105 21.6998 304.165 19.8029 306.169 18.6278 308.342 18.6278L326.904 18.6278C329.081 18.6278 331.087 19.8068 332.146 21.7085L346.2 46.9443 352.567 36.2981 354.059 33.8977 355.992 31.0229C356.158 30.7773 356.341 30.5444 356.542 30.3259L361.292 25.1384C361.552 24.8538 361.84 24.5946 362.15 24.3652L365.025 22.2402C365.303 22.0347 365.599 21.8534 365.908 21.6987L369.158 20.0737C369.515 19.8957 369.887 19.7537 370.271 19.6495L373.959 18.6495C374.282 18.5617 374.613 18.5012 374.947 18.4687L378.983 18.0748C379.284 18.0454 379.589 18.0388 379.891 18.0552Z" fill="#015B84" fill-rule="evenodd"/><path d="M342.462 74.9015 342.403 74.9724 342.466 74.9724C342.497 74.8976 342.495 74.874 342.462 74.9015ZM375.543 20.1616C376.364 20.1616 377.235 20.1944 378.157 20.2599 379.078 20.3254 379.878 20.4163 380.554 20.5325 381.322 20.653 382.424 20.785 383.859 20.9284L383.859 36.1295C381.747 35.9492 380.417 35.8044 379.867 35.6953 379.644 35.639 379.256 35.5868 378.704 35.5389 378.151 35.4909 377.595 35.467 377.034 35.467 376.262 35.467 375.511 35.5659 374.784 35.7639 374.056 35.9619 373.25 36.3559 372.364 36.9459 371.479 37.5359 370.541 38.3645 369.548 39.4319 368.556 40.4992 367.428 41.9678 366.162 43.8377L351.559 65.3426 379.552 108.93 360.987 108.93 343.715 80.4011C343.177 79.5683 342.644 78.6995 342.116 77.7947L341.364 76.4445 341.307 76.5293C340.413 77.8663 339.417 79.501 338.318 81.4333L330.121 94.0223C329.558 95.417 328.559 97.0761 327.124 98.9996 325.689 100.923 324.059 102.663 322.234 104.218 320.41 105.773 318.342 107.016 316.029 107.948 313.717 108.879 311.109 109.345 308.207 109.345 305.989 109.345 304.233 109.252 302.938 109.066 302.496 108.976 301.508 108.768 299.975 108.443L299.975 93.3769C302.06 93.5811 303.378 93.739 303.931 93.8508 304.127 93.8992 304.437 93.9427 304.861 93.9814 305.285 94.0201 305.903 94.0395 306.717 94.0395 307.464 94.0395 308.212 93.9489 308.961 93.7676 309.71 93.5863 310.518 93.2064 311.386 92.6279 312.254 92.0493 313.192 91.2187 314.198 90.1359 315.205 89.0532 316.359 87.5637 317.659 85.6675L331.946 65.6303 304.282 20.741 322.823 20.741 339.964 51.4547C340.217 51.6325 340.632 52.2691 341.207 53.3646L342.018 54.8787 353.654 35.4828C354.49 34.0459 355.586 32.3804 356.943 30.4864 358.3 28.5923 359.881 26.8626 361.688 25.2972 363.494 23.7319 365.536 22.4846 367.814 21.5554 370.092 20.6262 372.668 20.1616 375.543 20.1616Z" stroke="#48ACC3" stroke-width="12" stroke-linejoin="round" stroke-miterlimit="10" fill="#48ACC3" fill-rule="evenodd"/><text fill="#000000" fill-opacity="0" font-family="Arial,Arial_MSFontService,sans-serif" font-size="89.1833" x="299.975" y="98.197">ⲭ</text><path d="M147.623 160.8C143.485 160.8 140.036 162.418 137.277 165.655 134.518 168.891 133.138 174.144 133.138 181.413 133.138 188.099 134.544 193.06 137.356 196.297 140.168 199.533 143.723 201.152 148.021 201.152 151.789 201.152 154.946 199.6 157.492 196.496 160.039 193.392 161.313 188.125 161.313 180.697 161.313 173.852 159.986 168.825 157.333 165.615 154.68 162.405 151.444 160.8 147.623 160.8ZM254.554 156.183C249.407 156.183 245.295 158.226 242.218 162.312 240.254 164.859 239.007 168.652 238.477 173.693L270.392 173.693C269.756 167.432 268.071 162.948 265.338 160.242 262.606 157.536 259.011 156.183 254.554 156.183ZM253.201 137.002C265.299 137.002 274.849 138.833 281.853 142.494 288.857 146.155 294.19 151.461 297.851 158.412 301.512 165.363 303.343 174.409 303.343 185.552L303.343 189.213 238.397 189.213C238.981 194.413 240.387 198.286 242.615 200.833 245.746 204.494 249.832 206.325 254.872 206.325 258.056 206.325 261.08 205.529 263.946 203.937 265.697 202.929 267.58 201.152 269.596 198.605L301.512 201.55C296.63 210.039 290.741 216.128 283.843 219.815 276.945 223.503 267.05 225.347 254.156 225.347 242.96 225.347 234.152 223.768 227.732 220.611 221.312 217.454 215.993 212.44 211.774 205.569 207.556 198.698 205.447 190.619 205.447 181.334 205.447 168.122 209.679 157.43 218.142 149.259 226.605 141.088 238.291 137.002 253.201 137.002ZM158.209 137.002C169.511 137.002 178.252 141.327 184.434 149.975 190.615 158.624 193.706 169.316 193.706 182.05 193.706 196.111 190.337 206.842 183.598 214.244 176.859 221.646 168.343 225.347 158.05 225.347 153.062 225.347 148.512 224.498 144.4 222.8 140.288 221.102 136.613 218.582 133.377 215.239L133.377 255.591 100.665 255.591 100.665 138.912 130.989 138.912 130.989 151.408C135.181 146.155 139.028 142.6 142.53 140.743 147.252 138.249 152.478 137.002 158.209 137.002Z" fill="#015B84" fill-rule="evenodd"/><path d="M147.622 161.303 144.826 161.615 142.181 162.517 139.835 163.961 137.667 166.009 135.919 168.721 134.701 172.192 133.895 176.467 133.653 181.461 133.901 186.061 134.698 190.046 135.974 193.327 137.787 195.985 139.961 198.039 142.364 199.541 145.067 200.382 148.026 200.684 150.667 200.384 153.059 199.547 155.211 198.172 157.134 196.189 158.761 193.597 159.917 190.131 160.598 185.797 160.842 180.725 160.592 175.963 159.857 171.943 158.64 168.597 156.947 165.936 154.96 163.888 152.746 162.452 150.293 161.615ZM147.568 160.303C147.606 160.298 147.644 160.299 147.681 160.303L150.462 160.628C150.497 160.632 150.532 160.64 150.566 160.651L153.128 161.526C153.167 161.539 153.204 161.557 153.239 161.58L155.551 163.08C155.583 163.1 155.612 163.124 155.638 163.151L157.7 165.276C157.724 165.3 157.745 165.327 157.763 165.356L159.513 168.106C159.533 168.137 159.549 168.169 159.561 168.203L160.811 171.641C160.821 171.667 160.828 171.695 160.833 171.722L161.591 175.911 161.841 180.774 161.586 185.952 160.898 190.327C160.894 190.354 160.887 190.381 160.878 190.407L159.691 193.97C159.678 194.008 159.661 194.044 159.64 194.078L157.953 196.765C157.934 196.795 157.912 196.822 157.888 196.847L155.888 198.91C155.861 198.938 155.831 198.962 155.798 198.983L153.548 200.421C153.516 200.441 153.481 200.458 153.444 200.471L150.944 201.346C150.909 201.359 150.873 201.367 150.836 201.371L148.086 201.684C148.05 201.688 148.014 201.688 147.978 201.684L144.916 201.372C144.883 201.368 144.85 201.362 144.818 201.352L142.006 200.477C141.965 200.464 141.925 200.446 141.889 200.423L139.389 198.861C139.361 198.843 139.335 198.823 139.311 198.8L137.061 196.675C137.035 196.651 137.011 196.623 136.991 196.593L135.116 193.843C135.095 193.812 135.077 193.778 135.063 193.743L133.751 190.368C133.74 190.341 133.732 190.313 133.726 190.285L132.914 186.222C132.909 186.199 132.906 186.175 132.905 186.151L132.655 181.412 132.913 176.282 133.725 171.969C133.73 171.944 133.736 171.92 133.745 171.896L134.995 168.334C135.008 168.297 135.025 168.261 135.046 168.228L136.859 165.416C136.881 165.382 136.906 165.351 136.936 165.323L139.186 163.198C139.211 163.175 139.238 163.154 139.267 163.136L141.705 161.636C141.736 161.616 141.77 161.601 141.805 161.589L144.555 160.651C144.59 160.639 144.625 160.631 144.661 160.627ZM254.561 156.685 251.079 157.053 247.878 158.2 245.101 160.011 242.617 162.617 241.353 164.723 240.305 167.312 239.512 170.315 239.104 173.249 269.819 173.249 269.223 169.452 268.185 165.864 266.788 162.889 264.985 160.604 262.879 158.92 260.472 157.656 257.696 156.932ZM254.593 155.685 257.818 155.938C257.848 155.941 257.877 155.946 257.905 155.953L260.78 156.703C260.817 156.713 260.853 156.726 260.886 156.744L263.386 158.057C263.415 158.071 263.441 158.089 263.466 158.109L265.654 159.859C265.684 159.883 265.71 159.91 265.734 159.939L267.609 162.314C267.633 162.344 267.653 162.377 267.669 162.412L269.107 165.474C269.118 165.498 269.127 165.523 269.135 165.548L270.211 169.297 270.898 173.672C270.921 173.816 270.879 173.963 270.784 174.074 270.689 174.185 270.55 174.249 270.404 174.249L238.529 174.249C238.384 174.249 238.247 174.187 238.152 174.077 238.057 173.968 238.014 173.823 238.034 173.68L238.546 170.059 239.378 166.937 240.441 164.312C240.45 164.288 240.462 164.264 240.475 164.242L241.788 162.055C241.807 162.023 241.829 161.993 241.855 161.967L244.417 159.279C244.444 159.251 244.474 159.227 244.506 159.205L247.381 157.33C247.414 157.309 247.449 157.292 247.485 157.279L250.798 156.091C250.835 156.078 250.874 156.069 250.914 156.065L254.502 155.686C254.532 155.683 254.563 155.682 254.593 155.685ZM253.224 137.502 247.834 137.746 242.75 138.303 237.986 139.228 233.466 140.588 229.329 142.252 225.435 144.351 221.794 146.814 218.522 149.651 215.611 152.806 213.022 156.129 210.86 159.768 209.128 163.595 207.766 167.673 206.774 172.005 206.154 176.518 205.966 181.347 206.333 188.031 207.502 194.213 209.491 200.054 212.188 205.337 215.521 210.097 219.309 214.195 223.438 217.524 227.998 220.173 233.148 222.201 239.216 223.691 246.236 224.562 254.199 224.875 263.275 224.566 271.16 223.514 277.995 221.836 283.605 219.432 288.537 216.226 293.107 212.15 297.235 207.226 300.657 201.984 269.857 199.145 267.088 202.21C267.066 202.233 267.042 202.255 267.017 202.274L264.267 204.337C264.232 204.362 264.195 204.384 264.156 204.4L259.718 206.212C259.679 206.228 259.638 206.239 259.596 206.245L254.971 206.87C254.932 206.875 254.892 206.876 254.853 206.872L251.228 206.497C251.195 206.493 251.163 206.487 251.132 206.477L247.882 205.477C247.842 205.465 247.804 205.448 247.769 205.426L244.894 203.676C244.864 203.658 244.835 203.636 244.81 203.612L242.31 201.237C242.284 201.213 242.262 201.186 242.242 201.157L240.742 198.97C240.727 198.948 240.714 198.925 240.703 198.902L239.453 196.277C239.44 196.25 239.43 196.223 239.422 196.194L238.536 192.959 237.911 189.334C237.886 189.189 237.927 189.04 238.022 188.927 238.117 188.814 238.257 188.749 238.404 188.749L302.842 188.749 302.842 185.581 302.534 177.697 301.483 170.565 299.818 164.256 297.459 158.669 294.438 153.859 290.799 149.604 286.546 145.967 281.675 142.946 275.997 140.6 269.398 138.932 261.82 137.874ZM158.246 137.501 154.114 137.805 150.168 138.479 146.359 139.581 142.769 141.19 140.159 142.885 137.386 145.162 134.474 148.134 131.411 151.759C131.276 151.92 131.054 151.978 130.857 151.906 130.66 151.834 130.529 151.647 130.529 151.437L130.529 139.437 101.217 139.437 101.217 255.124 132.904 255.124 132.904 215.249C132.904 215.054 133.018 214.877 133.195 214.795 133.372 214.713 133.581 214.742 133.729 214.869L138.876 219.272 144.596 222.347 150.998 224.256 158.09 224.872 165.369 224.194 172.016 222.163 177.983 218.718 183.277 213.916 187.591 207.816 190.738 200.533 192.595 191.93 193.218 182.093 192.657 173.003 190.922 164.639 188.076 157.091 184.075 150.311 181.68 147.294 179.043 144.713 176.153 142.557 173.086 140.773 169.709 139.356 166.137 138.368 162.312 137.748ZM158.172 136.504 162.371 136.75 166.296 137.381 169.975 138.392 173.472 139.85 176.655 141.692 179.64 143.911 182.378 146.579 184.858 149.688 188.96 156.62C188.974 156.645 188.987 156.671 188.997 156.698L191.872 164.323C191.881 164.347 191.888 164.372 191.894 164.398L193.644 172.835C193.648 172.859 193.652 172.882 193.653 172.906L194.216 182.031 193.591 192.031C193.589 192.056 193.586 192.08 193.58 192.105L191.705 200.792C191.698 200.824 191.688 200.855 191.676 200.885L188.488 208.26C188.474 208.292 188.457 208.322 188.437 208.35L184.062 214.538C184.041 214.568 184.017 214.595 183.99 214.62L178.615 219.495C178.589 219.519 178.56 219.54 178.529 219.557L172.467 223.057C172.434 223.076 172.399 223.091 172.363 223.102L165.613 225.165C165.58 225.175 165.547 225.181 165.513 225.185L158.138 225.872C158.108 225.875 158.078 225.875 158.048 225.872L150.861 225.247C150.827 225.244 150.794 225.238 150.761 225.228L144.261 223.291C144.229 223.281 144.197 223.268 144.167 223.252L138.355 220.127C138.323 220.11 138.294 220.09 138.267 220.067L133.904 216.335 133.904 255.624C133.904 255.9 133.68 256.124 133.404 256.124L100.717 256.124C100.44 256.124 100.217 255.9 100.217 255.624L100.217 138.937C100.217 138.661 100.44 138.437 100.717 138.437L131.029 138.437C131.305 138.437 131.529 138.661 131.529 138.937L131.529 150.07 133.71 147.489 136.672 144.462 139.524 142.113 142.256 140.33C142.278 140.316 142.301 140.304 142.325 140.293L145.95 138.668 149.89 137.519 153.944 136.819ZM253.178 136.503 261.863 136.875 269.536 137.942 276.276 139.639C276.3 139.645 276.323 139.653 276.345 139.662L282.095 142.037C282.12 142.048 282.144 142.06 282.168 142.074L287.105 145.137C287.127 145.15 287.147 145.165 287.167 145.182L291.479 148.869C291.499 148.886 291.517 148.905 291.534 148.924L295.222 153.237C295.237 153.255 295.252 153.275 295.265 153.296L298.327 158.171C298.342 158.194 298.354 158.217 298.365 158.242L300.74 163.867 302.45 170.309 303.524 177.551 303.841 185.542 303.842 189.249C303.842 189.525 303.618 189.749 303.342 189.749L238.998 189.749 239.522 192.789 240.374 195.887 241.589 198.436 243.037 200.548 245.46 202.85 248.236 204.54 251.379 205.507 254.896 205.871 259.399 205.262 263.718 203.498 266.378 201.503 269.283 198.289C269.389 198.172 269.543 198.112 269.7 198.126L301.575 201.064C301.75 201.08 301.903 201.186 301.979 201.344 302.056 201.502 302.044 201.688 301.948 201.835L298.073 207.773 293.85 212.82C293.834 212.839 293.817 212.856 293.799 212.872L289.174 216.997C289.155 217.014 289.135 217.03 289.114 217.043L284.114 220.293C284.09 220.309 284.065 220.323 284.039 220.334L278.351 222.771C278.326 222.782 278.3 222.791 278.273 222.797L271.398 224.485 263.408 225.557 254.234 225.874 246.197 225.561 239.093 224.683 232.91 223.172 227.596 221.09C227.573 221.08 227.55 221.069 227.528 221.057L222.903 218.369C222.881 218.356 222.86 218.342 222.84 218.326L218.653 214.951C218.634 214.936 218.616 214.919 218.599 214.901L214.787 210.776 211.37 205.911 208.584 200.477C208.573 200.455 208.564 200.433 208.556 200.41L206.556 194.535 205.35 188.218 204.967 181.402 205.154 176.48 205.784 171.869 206.792 167.45 208.18 163.279 209.948 159.356 212.162 155.619 214.822 152.192 217.786 148.973 221.139 146.059 224.873 143.523 228.854 141.372 233.092 139.661 237.697 138.271 242.558 137.321 247.725 136.752Z" fill="#015B84" fill-rule="evenodd"/><path d="M143.76 157.069C139.621 157.069 136.173 158.687 133.413 161.924 130.654 165.161 129.275 170.413 129.275 177.683 129.275 184.368 130.681 189.329 133.493 192.566 136.305 195.803 139.86 197.421 144.158 197.421 147.925 197.421 151.082 195.869 153.629 192.765 156.176 189.661 157.45 184.395 157.45 176.966 157.45 170.122 156.123 165.094 153.47 161.884 150.817 158.674 147.58 157.069 143.76 157.069ZM250.691 152.453C245.544 152.453 241.432 154.495 238.354 158.581 236.391 161.128 235.144 164.922 234.614 169.962L266.529 169.962C265.892 163.701 264.208 159.218 261.475 156.512 258.743 153.806 255.148 152.453 250.691 152.453ZM249.338 133.272C261.435 133.272 270.986 135.102 277.99 138.763 284.994 142.424 290.326 147.73 293.988 154.681 297.649 161.632 299.479 170.679 299.479 181.821L299.479 185.482 234.534 185.482C235.118 190.682 236.524 194.556 238.752 197.103 241.883 200.764 245.968 202.594 251.009 202.594 254.193 202.594 257.217 201.798 260.082 200.207 261.833 199.198 263.717 197.421 265.733 194.874L297.649 197.819C292.767 206.308 286.878 212.397 279.98 216.085 273.082 219.772 263.186 221.616 250.293 221.616 239.097 221.616 230.289 220.038 223.869 216.881 217.449 213.724 212.129 208.709 207.911 201.838 203.693 194.967 201.584 186.889 201.584 177.603 201.584 164.391 205.815 153.7 214.278 145.528 222.741 137.357 234.428 133.272 249.338 133.272ZM154.346 133.272C165.647 133.272 174.389 137.596 180.57 146.245 186.752 154.893 189.843 165.585 189.843 178.319 189.843 192.38 186.473 203.112 179.735 210.513 172.996 217.915 164.48 221.616 154.186 221.616 149.199 221.616 144.649 220.767 140.537 219.069 136.425 217.371 132.75 214.851 129.513 211.508L129.513 251.86 96.8021 251.86 96.8021 135.182 127.126 135.182 127.126 147.677C131.318 142.424 135.164 138.869 138.666 137.012 143.389 134.518 148.615 133.272 154.346 133.272Z" stroke="#48ACC3" stroke-linejoin="round" stroke-miterlimit="10" fill="#48ACC3" fill-rule="evenodd"/><text fill="#000000" fill-opacity="0" font-family="Arial,Arial_MSFontService,sans-serif" font-size="118.589" x="96.8021" y="237.037">pe</text><path d="M368.682 137.002C373.458 137.002 378.684 138.488 384.362 141.459L374.333 164.54C370.513 162.948 367.489 162.153 365.26 162.153 361.015 162.153 357.726 163.904 355.391 167.406 352.048 172.34 350.377 181.573 350.377 195.103L350.377 223.437 317.824 223.437 317.824 138.912 348.148 138.912 348.148 152.761C351.066 146.765 354.078 142.64 357.182 140.385 360.286 138.13 364.119 137.002 368.682 137.002ZM433.173 104.768C438.85 104.768 447.101 105.432 457.925 106.758L454.344 126.337C450.47 125.7 447.34 125.382 444.952 125.382 442.034 125.382 439.938 125.873 438.664 126.854 437.391 127.836 436.489 129.388 435.958 131.51 435.693 132.678 435.56 135.145 435.56 138.912L451.001 138.912 451.001 162.63 435.56 162.63 435.56 223.437 403.088 223.437 403.088 162.63 390.99 162.63 390.99 138.912 403.088 138.912 403.088 135.092C403.088 131.643 403.459 127.849 404.202 123.711 404.945 119.572 406.338 116.189 408.38 113.563 410.423 110.937 413.288 108.814 416.976 107.196 420.664 105.577 426.063 104.768 433.173 104.768Z" fill="#015B84" fill-rule="evenodd"/><path d="M368.68 137.504 365.479 137.745 362.578 138.405 359.934 139.389 357.514 140.841 355.263 142.849 353.01 145.523 350.783 148.921 348.596 153.046C348.488 153.249 348.256 153.352 348.033 153.297 347.811 153.242 347.654 153.041 347.654 152.812L347.654 139.437 318.342 139.437 318.342 222.937 349.904 222.937 349.904 195.118 349.967 190.221 350.219 185.766 350.597 181.674 351.165 177.958 351.863 174.666 352.754 171.747 353.783 169.25 354.971 167.187C354.985 167.162 355.002 167.138 355.021 167.116L356.958 164.803C356.986 164.77 357.018 164.74 357.054 164.715L359.367 163.09C359.401 163.066 359.437 163.047 359.476 163.032L362.101 162.032C362.142 162.017 362.184 162.006 362.227 162.002L365.227 161.689C365.271 161.685 365.314 161.686 365.357 161.693L369.295 162.318C369.323 162.322 369.351 162.329 369.378 162.339L374.067 163.94 383.75 141.747 380.054 140.035 376.106 138.674 372.299 137.81ZM368.645 136.504C368.671 136.502 368.698 136.502 368.725 136.504L372.384 136.814 376.327 137.699 380.379 139.089 384.614 141.045C384.861 141.16 384.971 141.45 384.862 141.699L374.8 164.762C374.696 165 374.426 165.119 374.18 165.035L369.096 163.299 365.266 162.691 362.396 162.99 359.89 163.944 357.683 165.496 355.815 167.724 354.65 169.749 353.679 172.127 352.82 174.957 352.143 178.165 351.586 181.825 351.214 185.858 350.966 190.277 350.904 195.131 350.904 223.437C350.904 223.713 350.68 223.937 350.404 223.937L317.842 223.937C317.565 223.937 317.342 223.713 317.342 223.437L317.342 138.937C317.342 138.661 317.565 138.437 317.842 138.437L348.154 138.437C348.43 138.437 348.654 138.661 348.654 138.937L348.654 150.802 349.9 148.453 352.173 144.975 354.521 142.177C354.537 142.159 354.553 142.142 354.571 142.126L356.884 140.064C356.907 140.043 356.932 140.024 356.959 140.008L359.459 138.508C359.486 138.492 359.513 138.479 359.542 138.468L362.23 137.468 365.292 136.762C365.317 136.756 365.342 136.753 365.367 136.751ZM433.19 105.268 428.273 105.434 423.94 105.927 420.255 106.659 417.236 107.707 412.392 110.466 408.803 113.872 406.306 118.319 404.707 123.853 403.903 129.715 403.592 135.124 403.592 138.937C403.592 139.213 403.368 139.437 403.092 139.437L391.529 139.437 391.529 162.187 403.092 162.187C403.368 162.187 403.592 162.411 403.592 162.687L403.592 222.937 435.092 222.937 435.092 162.687C435.092 162.411 435.315 162.187 435.592 162.187L450.529 162.187 450.529 139.437 435.592 139.437C435.315 139.437 435.092 139.213 435.092 138.937L435.092 136.345 435.217 134.229 435.286 132.605 435.473 131.48C435.479 131.443 435.49 131.407 435.504 131.372L436.629 128.622C436.648 128.575 436.675 128.53 436.708 128.49L438.333 126.553C438.384 126.493 438.448 126.445 438.521 126.414L441.021 125.352C441.067 125.332 441.117 125.319 441.167 125.314L444.917 124.939C444.943 124.937 444.97 124.936 444.996 124.938L449.219 125.191 453.997 125.817 457.379 107.248 450.295 106.435 443.621 105.811 437.949 105.436ZM433.156 104.269 437.984 104.437 443.687 104.813 450.388 105.439 458.024 106.315C458.161 106.331 458.286 106.403 458.368 106.514 458.451 106.625 458.483 106.765 458.458 106.901L454.896 126.464C454.848 126.726 454.603 126.905 454.339 126.87L449.089 126.183 444.977 125.938 441.342 126.302 439.023 127.288 437.525 129.073 436.451 131.699 436.272 132.769 436.216 134.269 436.091 136.404 436.091 138.437 451.029 138.437C451.305 138.437 451.529 138.661 451.529 138.937L451.529 162.687C451.529 162.963 451.305 163.187 451.029 163.187L436.092 163.187 436.092 223.437C436.092 223.713 435.868 223.937 435.592 223.937L403.092 223.937C402.815 223.937 402.592 223.713 402.592 223.437L402.592 163.187 391.029 163.187C390.753 163.187 390.529 162.963 390.529 162.687L390.529 138.937C390.529 138.661 390.753 138.437 391.029 138.437L402.592 138.437 402.592 135.124 402.905 129.658 403.721 123.681C403.724 123.658 403.729 123.634 403.736 123.61L405.361 117.985C405.372 117.949 405.387 117.913 405.406 117.879L407.968 113.317C407.993 113.273 408.024 113.234 408.06 113.199L411.747 109.699C411.777 109.671 411.809 109.647 411.844 109.627L416.782 106.815C416.808 106.8 416.836 106.787 416.865 106.777L419.928 105.714 423.743 104.946 428.16 104.44Z" fill="#015B84" fill-rule="evenodd"/><path d="M364.819 133.272C369.595 133.272 374.821 134.757 380.498 137.729L370.47 160.81C366.65 159.218 363.625 158.422 361.397 158.422 357.152 158.422 353.862 160.173 351.528 163.675 348.185 168.609 346.513 177.842 346.513 191.372L346.513 219.706 313.961 219.706 313.961 135.182 344.285 135.182 344.285 149.03C347.203 143.035 350.214 138.909 353.318 136.654 356.422 134.399 360.256 133.272 364.819 133.272ZM429.309 101.038C434.987 101.038 443.238 101.701 454.062 103.027L450.48 122.606C446.607 121.97 443.476 121.651 441.089 121.651 438.17 121.651 436.075 122.142 434.801 123.124 433.528 124.105 432.626 125.657 432.095 127.78 431.83 128.947 431.697 131.414 431.697 135.182L447.138 135.182 447.138 158.899 431.697 158.899 431.697 219.706 399.224 219.706 399.224 158.899 387.127 158.899 387.127 135.182 399.224 135.182 399.224 131.361C399.224 127.912 399.596 124.119 400.339 119.98 401.082 115.841 402.474 112.459 404.517 109.832 406.56 107.206 409.425 105.083 413.113 103.465 416.801 101.847 422.199 101.038 429.309 101.038Z" stroke="#48ACC3" stroke-linejoin="round" stroke-miterlimit="10" fill="#48ACC3" fill-rule="evenodd"/><text fill="#000000" fill-opacity="0" font-family="Arial,Arial_MSFontService,sans-serif" font-size="118.668" x="313.961" y="204.873">rf</text><path d="M513.941 156.183C508.794 156.183 504.682 158.226 501.604 162.312 499.641 164.859 498.394 168.652 497.864 173.693L529.779 173.693C529.142 167.432 527.458 162.948 524.725 160.242 521.992 157.536 518.398 156.183 513.941 156.183ZM623.259 137.002C637.055 137.002 647.574 139.469 654.816 144.404 662.059 149.339 667.14 156.555 670.058 166.052L639.575 170.112C638.62 166.504 636.882 163.784 634.362 161.954 631.841 160.123 628.459 159.208 624.214 159.208 618.855 159.208 614.517 161.128 611.201 164.967 607.885 168.807 606.227 174.62 606.227 182.407 606.227 189.345 607.872 194.615 611.161 198.217 614.451 201.818 618.643 203.619 623.737 203.619 627.981 203.619 631.55 202.531 634.441 200.356 637.333 198.18 639.495 194.837 640.928 190.327L671.729 193.829C670.031 200.25 667.246 205.808 663.372 210.503 659.499 215.199 654.551 218.847 648.529 221.447 642.506 224.047 634.853 225.347 625.567 225.347 616.6 225.347 609.132 224.512 603.163 222.842 597.193 221.173 592.06 218.469 587.762 214.732 583.464 210.994 580.095 206.607 577.654 201.571 575.213 196.535 573.993 189.856 573.993 181.533 573.993 172.838 575.479 165.602 578.45 159.823 580.625 155.583 583.597 151.779 587.364 148.413 591.131 145.046 595.005 142.542 598.984 140.898 605.298 138.301 613.39 137.002 623.259 137.002ZM512.588 137.002C524.685 137.002 534.236 138.833 541.24 142.494 548.244 146.155 553.576 151.461 557.238 158.412 560.899 165.363 562.729 174.409 562.729 185.552L562.729 189.213 497.784 189.213C498.368 194.413 499.774 198.286 502.002 200.833 505.133 204.494 509.218 206.325 514.259 206.325 517.443 206.325 520.467 205.529 523.332 203.937 525.083 202.929 526.967 201.152 528.983 198.605L560.899 201.55C556.017 210.039 550.128 216.128 543.23 219.815 536.332 223.503 526.436 225.347 513.543 225.347 502.347 225.347 493.539 223.768 487.119 220.611 480.699 217.454 475.379 212.44 471.161 205.569 466.943 198.698 464.834 190.619 464.834 181.334 464.834 168.122 469.065 157.43 477.528 149.259 485.991 141.088 497.678 137.002 512.588 137.002ZM724.971 106.758 724.971 138.912 742.8 138.912 742.8 162.63 724.971 162.63 724.971 192.576C724.971 196.176 725.316 198.559 726.006 199.724 727.067 201.525 728.924 202.425 731.577 202.425 733.965 202.425 737.308 201.737 741.606 200.359L743.993 222.72C735.981 224.471 728.5 225.347 721.549 225.347 713.484 225.347 707.541 224.314 703.721 222.247 699.901 220.18 697.075 217.04 695.245 212.827 693.414 208.614 692.499 201.792 692.499 192.359L692.499 162.63 680.56 162.63 680.56 138.912 692.499 138.912 692.499 123.392Z" fill="#015B84" fill-rule="evenodd"/><path d="M513.947 156.685 510.465 157.053 507.265 158.2 504.488 160.011 502.003 162.617 500.74 164.723 499.692 167.312 498.899 170.315 498.49 173.249 529.206 173.249 528.609 169.452 527.571 165.864 526.175 162.889 524.371 160.604 522.266 158.92 519.859 157.656 517.082 156.932ZM513.98 155.685 517.205 155.938C517.234 155.941 517.263 155.946 517.292 155.953L520.167 156.703C520.204 156.713 520.239 156.726 520.273 156.744L522.773 158.057C522.801 158.071 522.828 158.089 522.853 158.109L525.041 159.859C525.07 159.883 525.097 159.91 525.121 159.939L526.996 162.314C527.019 162.344 527.04 162.377 527.056 162.412L528.493 165.474C528.505 165.498 528.514 165.523 528.521 165.548L529.597 169.297 530.285 173.672C530.307 173.816 530.266 173.963 530.171 174.074 530.076 174.185 529.937 174.249 529.791 174.249L497.916 174.249C497.771 174.249 497.633 174.187 497.538 174.077 497.443 173.968 497.401 173.823 497.421 173.68L497.932 170.059 498.765 166.937 499.827 164.312C499.837 164.288 499.849 164.264 499.862 164.242L501.175 162.055C501.194 162.023 501.216 161.993 501.241 161.967L503.804 159.279C503.831 159.251 503.86 159.227 503.893 159.205L506.768 157.33C506.8 157.309 506.835 157.292 506.872 157.279L510.185 156.091C510.222 156.078 510.261 156.069 510.301 156.065L513.888 155.686C513.919 155.683 513.949 155.682 513.98 155.685ZM623.281 137.502 616.282 137.809 609.959 138.488 604.261 139.724 599.239 141.398 593.436 144.484 587.751 148.81 582.749 154.12 578.922 160.108 577.015 164.6 575.66 169.7 574.79 175.332 574.54 181.541 574.787 187.441 575.402 192.695 576.506 197.316 578.115 201.399 582.439 208.38 588.128 214.378 591.421 216.944 595.065 219.109 599.011 220.962 603.281 222.388 607.985 223.504 613.333 224.251 619.175 224.749 625.584 224.875 632.167 224.628 638.184 223.886 643.563 222.715 648.315 221.053 652.585 218.89 656.469 216.429 659.927 213.531 663.012 210.267 665.669 206.627 667.957 202.612 669.813 198.351 671.072 194.303 641.307 190.915 640.23 193.739 638.73 196.489C638.715 196.515 638.699 196.54 638.68 196.563L636.82 198.864 634.82 200.739C634.796 200.762 634.77 200.782 634.742 200.799L632.43 202.236C632.405 202.252 632.379 202.265 632.351 202.276L629.851 203.276C629.826 203.286 629.801 203.294 629.774 203.3L626.962 203.925C626.936 203.931 626.91 203.934 626.884 203.936L623.821 204.123C623.797 204.125 623.773 204.125 623.749 204.122L620.061 203.81C620.026 203.807 619.992 203.8 619.959 203.79L616.646 202.79C616.611 202.78 616.578 202.765 616.546 202.748L613.546 201.06C613.513 201.042 613.483 201.02 613.455 200.995L610.83 198.62C610.803 198.596 610.779 198.568 610.758 198.538L608.633 195.538C608.612 195.509 608.594 195.477 608.58 195.444L607.018 191.757C607.006 191.729 606.997 191.699 606.99 191.669L606.052 187.419C606.047 187.395 606.043 187.369 606.042 187.344L605.729 182.408 606.05 176.839 606.988 172.151C606.994 172.123 607.002 172.095 607.013 172.067L608.575 168.067C608.588 168.033 608.605 168.001 608.626 167.97L610.813 164.72C610.835 164.688 610.86 164.659 610.888 164.633L613.575 162.133C613.601 162.109 613.63 162.087 613.661 162.069L616.724 160.256C616.757 160.237 616.793 160.221 616.831 160.209L620.268 159.147C620.3 159.137 620.333 159.13 620.367 159.127L624.179 158.752C624.215 158.748 624.252 158.749 624.288 158.753L630.038 159.44C630.09 159.447 630.141 159.461 630.189 159.483L634.626 161.546C634.685 161.573 634.738 161.612 634.782 161.659L637.97 165.097C638.009 165.139 638.041 165.188 638.063 165.241L639.914 169.578 669.405 165.65 667.027 159.592 663.693 153.852 659.501 148.919 654.573 144.854 648.595 141.649 641.424 139.362 633.015 137.999ZM512.61 137.502 507.22 137.746 502.136 138.303 497.373 139.228 492.853 140.588 488.716 142.252 484.821 144.351 481.181 146.814 477.908 149.651 474.998 152.806 472.408 156.129 470.246 159.768 468.515 163.595 467.153 167.673 466.161 172.005 465.54 176.518 465.352 181.347 465.719 188.031 466.889 194.213 468.877 200.054 471.575 205.337 474.908 210.097 478.696 214.195 482.825 217.524 487.384 220.173 492.535 222.201 498.602 223.691 505.623 224.562 513.586 224.875 522.662 224.566 530.547 223.514 537.382 221.836 542.992 219.432 547.924 216.226 552.493 212.15 556.622 207.226 560.043 201.984 529.244 199.145 526.474 202.21C526.453 202.233 526.429 202.255 526.403 202.274L523.653 204.337C523.619 204.362 523.582 204.384 523.542 204.4L519.105 206.212C519.066 206.228 519.025 206.239 518.983 206.245L514.358 206.87C514.318 206.875 514.279 206.876 514.239 206.872L510.614 206.497C510.582 206.493 510.55 206.487 510.519 206.477L507.269 205.477C507.229 205.465 507.191 205.448 507.156 205.426L504.281 203.676C504.25 203.658 504.222 203.636 504.196 203.612L501.696 201.237C501.671 201.213 501.648 201.186 501.628 201.157L500.128 198.97C500.114 198.948 500.101 198.925 500.089 198.902L498.839 196.277C498.827 196.25 498.816 196.223 498.809 196.194L497.923 192.959 497.298 189.334C497.273 189.189 497.313 189.04 497.408 188.927 497.503 188.814 497.643 188.749 497.791 188.749L562.228 188.749 562.229 185.581 561.921 177.697 560.87 170.565 559.205 164.256 556.846 158.669 553.824 153.859 550.186 149.604 545.932 145.967 541.062 142.946 535.383 140.6 528.784 138.932 521.207 137.874ZM512.565 136.503 521.25 136.875 528.922 137.942 535.663 139.639C535.686 139.645 535.709 139.653 535.732 139.662L541.482 142.037C541.507 142.048 541.531 142.06 541.554 142.074L546.492 145.137C546.513 145.15 546.534 145.165 546.553 145.182L550.866 148.869C550.885 148.886 550.904 148.905 550.921 148.924L554.608 153.237C554.624 153.255 554.639 153.275 554.652 153.296L557.714 158.171C557.728 158.194 557.741 158.217 557.751 158.242L560.126 163.867 561.837 170.309 562.91 177.551 563.228 185.542 563.228 189.249C563.228 189.525 563.004 189.749 562.728 189.749L498.384 189.749 498.909 192.789 499.761 195.887 500.975 198.436 502.423 200.548 504.846 202.85 507.622 204.54 510.766 205.507 514.283 205.871 518.786 205.262 523.105 203.498 525.765 201.503 528.67 198.289C528.775 198.172 528.93 198.112 529.087 198.126L560.962 201.064C561.136 201.08 561.29 201.186 561.366 201.344 561.442 201.502 561.43 201.688 561.334 201.835L557.459 207.773 553.237 212.82C553.221 212.839 553.204 212.856 553.186 212.872L548.561 216.997C548.542 217.014 548.522 217.03 548.501 217.043L543.501 220.293C543.477 220.309 543.452 220.323 543.425 220.334L537.738 222.771C537.713 222.782 537.687 222.791 537.66 222.797L530.785 224.485 522.795 225.557 513.62 225.874 505.584 225.561 498.479 224.683 492.297 223.172 486.983 221.09C486.959 221.08 486.936 221.069 486.915 221.057L482.29 218.369C482.268 218.356 482.247 218.342 482.227 218.326L478.039 214.951C478.021 214.936 478.003 214.919 477.986 214.901L474.174 210.776 470.756 205.911 467.971 200.477C467.96 200.455 467.95 200.433 467.942 200.41L465.942 194.535 464.737 188.218 464.354 181.402 464.541 176.48 465.17 171.869 466.178 167.45 467.566 163.279 469.335 159.356 471.548 155.619 474.209 152.192 477.173 148.973 480.526 146.059 484.26 143.523 488.241 141.372 492.479 139.661 497.084 138.271 501.945 137.321 507.111 136.752ZM623.237 136.503 633.066 137 641.621 138.381C641.645 138.385 641.669 138.39 641.693 138.398L648.943 140.71C648.972 140.72 649 140.732 649.027 140.746L655.089 143.996C655.119 144.012 655.146 144.03 655.171 144.051L660.171 148.176C660.194 148.195 660.215 148.216 660.234 148.238L664.484 153.238C664.503 153.261 664.521 153.285 664.536 153.311L667.911 159.123C667.923 159.145 667.934 159.168 667.944 159.192L670.569 165.879C670.625 166.022 670.612 166.183 670.534 166.315 670.456 166.448 670.322 166.537 670.169 166.557L639.669 170.62C639.447 170.65 639.232 170.527 639.143 170.32L637.177 165.713 634.116 162.411 629.84 160.424 624.223 159.752 620.515 160.117 617.182 161.147 614.217 162.902 611.611 165.326 609.486 168.483 607.96 172.39 607.031 177.035 606.727 182.465 607.037 187.241 607.957 191.409 609.48 195.004 611.542 197.915 614.085 200.216 616.988 201.849 620.198 202.818 623.797 203.123 626.783 202.94 629.518 202.332 631.939 201.364 634.172 199.976 636.136 198.135 637.873 195.971 639.352 193.26 640.511 190.197C640.592 189.983 640.808 189.852 641.035 189.877L671.785 193.377C671.933 193.394 672.066 193.476 672.147 193.601 672.228 193.726 672.25 193.88 672.206 194.023L670.768 198.648 668.874 203.011 666.538 207.122 663.82 210.856 660.654 214.217 657.112 217.195 653.121 219.734 648.767 221.945 643.894 223.659 638.397 224.863 632.29 225.62 625.622 225.874 619.156 225.749 613.248 225.247 607.847 224.494 603.051 223.361 598.695 221.911 594.641 220.014 590.911 217.804 587.484 215.144C587.464 215.129 587.445 215.112 587.428 215.093L581.678 209.031C581.655 209.006 581.634 208.979 581.616 208.95L577.241 201.888C577.225 201.862 577.212 201.835 577.201 201.808L575.576 197.683 574.43 192.928 573.794 187.558 573.541 181.583 573.791 175.292 574.672 169.548 576.057 164.309C576.064 164.286 576.071 164.263 576.081 164.241L578.018 159.679C578.029 159.653 578.042 159.628 578.057 159.605L581.932 153.542C581.949 153.516 581.968 153.492 581.989 153.469L587.052 148.094C587.071 148.074 587.091 148.055 587.113 148.039L592.863 143.664C592.884 143.648 592.907 143.633 592.931 143.62L598.806 140.495C598.831 140.482 598.856 140.471 598.883 140.462L603.945 138.775 609.747 137.511 616.175 136.815ZM724.472 107.576 693 123.698 693.041 138.935C693.041 139.068 692.989 139.196 692.895 139.29 692.801 139.384 692.674 139.437 692.541 139.437L681.103 139.437 681.103 162.187 692.541 162.187C692.817 162.187 693.041 162.411 693.041 162.687L693.041 192.36 693.226 198.893 693.721 204.475 694.527 209.063 695.751 212.675 697.276 215.542 699.164 218.039 701.351 220.105 703.964 221.806 707.132 223.147 711.168 224.066 715.932 224.687 721.574 224.875 732.331 224.257 743.494 222.336 741.231 201.011 736.047 202.419C736.023 202.426 735.998 202.431 735.973 202.433L731.661 202.933C731.608 202.94 731.555 202.937 731.503 202.927L728.128 202.239C728.04 202.221 727.958 202.179 727.891 202.118L725.703 200.118C725.647 200.066 725.603 200.002 725.575 199.93L725.117 198.741 724.742 197.178C724.737 197.155 724.733 197.132 724.73 197.108L724.541 195.075 724.478 192.624 724.478 162.687C724.478 162.411 724.702 162.187 724.978 162.187L742.353 162.187 742.353 139.437 724.978 139.437C724.702 139.437 724.478 139.213 724.478 138.937ZM724.743 106.313C724.898 106.234 725.084 106.241 725.232 106.331 725.381 106.422 725.471 106.584 725.471 106.758L725.478 138.437 742.853 138.437C743.129 138.437 743.353 138.661 743.353 138.937L743.353 162.687C743.353 162.963 743.129 163.187 742.853 163.187L725.478 163.187 725.478 192.624 725.541 195.049 725.723 196.979 726.089 198.508 726.464 199.458 728.464 201.287 731.625 201.931 735.821 201.444 741.535 199.892C741.676 199.853 741.827 199.879 741.948 199.962 742.069 200.044 742.147 200.176 742.163 200.321L744.538 222.696C744.566 222.959 744.385 223.197 744.126 223.242L732.501 225.242 721.632 225.873 715.899 225.686 711.039 225.058 706.867 224.112C706.839 224.105 706.811 224.096 706.783 224.085L703.533 222.71C703.506 222.698 703.48 222.684 703.455 222.668L700.768 220.918C700.743 220.902 700.719 220.883 700.697 220.863L698.447 218.738C698.427 218.719 698.409 218.698 698.392 218.676L696.454 216.113C696.438 216.092 696.424 216.07 696.412 216.047L694.849 213.109C694.837 213.085 694.826 213.06 694.817 213.035L693.567 209.347C693.559 209.323 693.553 209.298 693.548 209.273L692.736 204.648 692.23 198.981 692.041 192.389 692.041 163.187 680.603 163.187C680.327 163.187 680.103 162.963 680.103 162.687L680.103 138.937C680.103 138.661 680.327 138.437 680.603 138.437L692.039 138.437 691.999 123.394C691.998 123.206 692.103 123.033 692.271 122.947Z" fill="#015B84" fill-rule="evenodd"/><path d="M510.077 152.453C504.931 152.453 500.818 154.495 497.741 158.581 495.778 161.128 494.531 164.922 494 169.962L525.916 169.962C525.279 163.701 523.594 159.218 520.862 156.512 518.129 153.806 514.534 152.453 510.077 152.453ZM619.396 133.272C633.191 133.272 643.71 135.739 650.953 140.673 658.196 145.608 663.276 152.824 666.195 162.322L635.712 166.381C634.757 162.773 633.019 160.053 630.499 158.223 627.978 156.392 624.596 155.477 620.351 155.477 614.992 155.477 610.654 157.397 607.338 161.237 604.022 165.077 602.364 170.89 602.364 178.676 602.364 185.615 604.008 190.885 607.298 194.486 610.588 198.087 614.78 199.888 619.873 199.888 624.118 199.888 627.686 198.8 630.578 196.625 633.47 194.45 635.632 191.107 637.065 186.597L667.866 190.099C666.168 196.519 663.382 202.077 659.509 206.773 655.636 211.469 650.688 215.116 644.666 217.716 638.643 220.316 630.989 221.616 621.704 221.616 612.737 221.616 605.269 220.781 599.299 219.112 593.33 217.442 588.197 214.738 583.899 211.001 579.601 207.264 576.232 202.877 573.791 197.841 571.35 192.805 570.13 186.125 570.13 177.802 570.13 169.108 571.615 161.871 574.587 156.093 576.762 151.852 579.734 148.048 583.501 144.682 587.268 141.316 591.141 138.811 595.121 137.168 601.435 134.57 609.527 133.272 619.396 133.272ZM508.724 133.272C520.822 133.272 530.373 135.102 537.377 138.763 544.381 142.424 549.713 147.73 553.374 154.681 557.035 161.632 558.866 170.679 558.866 181.821L558.866 185.482 493.921 185.482C494.504 190.682 495.91 194.556 498.139 197.103 501.269 200.764 505.355 202.594 510.396 202.594 513.579 202.594 516.604 201.798 519.469 200.207 521.22 199.198 523.104 197.421 525.12 194.874L557.035 197.819C552.154 206.308 546.264 212.397 539.367 216.085 532.469 219.772 522.573 221.616 509.679 221.616 498.484 221.616 489.676 220.038 483.256 216.881 476.835 213.724 471.516 208.709 467.298 201.838 463.08 194.967 460.97 186.889 460.97 177.603 460.97 164.391 465.202 153.7 473.665 145.528 482.128 137.357 493.815 133.272 508.724 133.272ZM721.108 103.027 721.108 135.182 738.936 135.182 738.936 158.899 721.108 158.899 721.108 188.845C721.108 192.446 721.453 194.828 722.143 195.993 723.204 197.794 725.061 198.694 727.714 198.694 730.102 198.694 733.445 198.006 737.742 196.629L740.13 218.99C732.118 220.741 724.637 221.616 717.686 221.616 709.621 221.616 703.678 220.583 699.858 218.516 696.037 216.449 693.212 213.309 691.381 209.096 689.551 204.884 688.635 198.061 688.635 188.629L688.635 158.899 676.697 158.899 676.697 135.182 688.635 135.182 688.635 119.662Z" stroke="#48ACC3" stroke-linejoin="round" stroke-miterlimit="10" fill="#48ACC3" fill-rule="evenodd"/><text fill="#000000" fill-opacity="0" font-family="Arial,Arial_MSFontService,sans-serif" font-size="118.589" x="460.97" y="206.793">ect</text></g></svg>